HIERARCHY
ROOT Hips
{
	OFFSET 0.000000 0.000000 0.000000 
	CHANNELS 6 Xposition Yposition Zposition Yrotation Zrotation Xrotation 
	JOINT Lumbar
	{
		OFFSET 0.000000 0.000000 0.000000 
		CHANNELS 3 Zrotation Xrotation Yrotation
		JOINT Neck
		{
			OFFSET 0.000000 0.445665 0.000000 
			CHANNELS 3 Zrotation Xrotation Yrotation
			End Site
			{
				OFFSET 0.000000 0.227535 0.000000 
			}
		}
		JOINT RightShoulder
		{
			OFFSET 0.019635 0.377685 0.194865 
			CHANNELS 3 Zrotation Xrotation Yrotation
			JOINT RightElbow
			{
				OFFSET 0.000000 -0.243375 0.000000 
				CHANNELS 2 Zrotation Yrotation
				JOINT RightWrist
				{
					OFFSET 0.000000 -0.264825 0.000000 
					CHANNELS 2 Zrotation Xrotation
					End Site
					{
						OFFSET 0.006600 -0.176220 0.000990 
					}
				}
			}
		}
		JOINT LeftShoulder
		{
			OFFSET 0.019635 0.377685 -0.194865 
			CHANNELS 3 Zrotation Xrotation Yrotation
			JOINT LeftElbow
			{
				OFFSET 0.000000 -0.243375 0.000000 
				CHANNELS 2 Zrotation Yrotation
				JOINT LeftWrist
				{
					OFFSET 0.000000 -0.264825 0.000000 
					CHANNELS 2 Zrotation Xrotation
					End Site
					{
						OFFSET 0.006600 -0.176220 -0.000990 
					}
				}
			}
		}
	}
	JOINT RightHip
	{
		OFFSET 0.052140 -0.069960 0.075570 
		CHANNELS 3 Zrotation Xrotation Yrotation
		JOINT RightKnee
		{
			OFFSET 0.000000 -0.402270 0.000000 
			CHANNELS 1 Zrotation
			JOINT RightAnkle
			{
				OFFSET 0.000000 -0.404085 0.000000 
				CHANNELS 3 Zrotation Xrotation Yrotation
				End Site
				{
					OFFSET 0.204105 -0.089430 0.008415 
				}
			}
		}
	}
	JOINT LeftHip
	{
		OFFSET 0.052140 -0.069960 -0.075570 
		CHANNELS 3 Zrotation Xrotation Yrotation
		JOINT LeftKnee
		{
			OFFSET 0.000000 -0.402270 0.000000 
			CHANNELS 1 Zrotation
			JOINT LeftAnkle
			{
				OFFSET 0.000000 -0.404085 0.000000 
				CHANNELS 3 Zrotation Xrotation Yrotation
				End Site
				{
					OFFSET 0.204105 -0.089430 -0.008415 
				}
			}
		}
	}
}
MOTION
Frames: 22
Frame Time: 0.02
0.38405 -0.0108 0.61738 124.45024 -42.07188 1.87975 50.94339 -1.79365 -4.04877 -4.47974 -9.99801 -0.83079 169.87772 -104.54267 -90.00786 112.03917 88.26579 -79.68541 -22.84169 169.88194 77.05942 90.01163 116.71423 -59.95477 -79.69817 22.97253 64.43491 -9.89027 3.41346 -17.7163 -11.0519 -2.70619 -2.2035 50.68392 -0.43038 12.52407 -31.90273 -6.73082 3.91265 2.66612
0.38332 -0.01061 0.61778 124.79807 -41.99678 1.8468 51.13445 -1.7626 -3.39287 -5.0073 -9.65681 -0.83079 169.89158 -101.67885 -90.02031 112.53784 84.53674 -79.70951 -23.03692 169.88194 77.8053 90.01163 114.29158 -60.46664 -79.69828 22.97249 64.28727 -10.12143 2.50157 -17.65793 -11.07729 -2.66188 -2.18685 50.62511 -0.42789 12.53762 -31.87175 -6.70643 3.86634 2.64269
0.38247 -0.01048 0.61801 125.0716 -41.90119 1.79754 51.35377 -1.71989 -2.57394 -5.57476 -9.27078 -0.83079 169.87064 -98.59812 -90.00132 112.8861 80.39781 -79.68695 -22.92534 169.88194 78.27714 90.01163 111.34353 -60.93624 -79.69796 22.97227 64.10319 -10.34487 1.51415 -17.57687 -11.09582 -2.58996 -2.15665 50.53731 -0.41946 12.56251 -31.84737 -6.68176 3.82639 2.62566
0.38167 -0.01032 0.61831 125.37052 -41.81353 1.75433 51.559 -1.67996 -1.8239 -6.11607 -8.9044 -0.83079 169.87731 -95.62186 -90.00783 113.15613 76.54518 -79.69453 -22.96378 169.88196 78.86693 90.01163 108.5714 -61.42603 -79.69841 22.97236 63.93447 -10.56516 0.59093 -17.50677 -11.11746 -2.53456 -2.1345 50.45977 -0.41086 12.59004 -31.81985 -6.65692 3.78366 2.60553
0.38089 -0.01017 0.61861 125.70554 -41.73038 1.71517 51.76967 -1.64955 -1.09421 -6.69455 -8.539 -0.83079 169.93602 -92.59546 -90.0598 114.0634 72.25407 -79.73489 -22.98034 169.88193 79.48122 90.01163 106.08027 -61.90814 -79.69829 22.97221 63.76785 -10.81338 -0.46309 -17.43407 -11.13648 -2.46207 -2.10404 50.39281 -0.41174 12.58717 -31.79299 -6.63313 3.74001 2.58588
0.38004 -0.01002 0.61888 125.94954 -41.63408 1.66564 51.97594 -1.59785 -0.285 -7.20404 -8.16265 -0.83079 169.75034 -89.64003 -89.89318 113.58737 68.77852 -79.60825 -22.95149 169.88194 79.99344 90.01163 102.85044 -62.4044 -79.6969 22.9716 63.59161 -11.00282 -1.26238 -17.36294 -11.16259 -2.419 -2.08807 50.29826 -0.39389 12.6485 -31.76608 -6.60714 3.6998 2.56682
0.379 -0.00983 0.61906 125.93397 -41.49883 1.57514 52.15936 -1.47928 0.71567 -7.50997 -7.75508 -0.83079 170.04481 -86.82949 -90.16004 109.4962 67.74468 -79.80958 -22.99126 169.88201 80.12565 90.01164 98.00386 -62.87001 -79.70111 22.9733 63.36874 -11.01702 -1.32029 -17.28125 -11.18149 -2.46094 -2.1119 50.12617 -0.30806 12.8945 -31.74034 -6.57555 3.66958 2.54869
0.37789 -0.00963 0.61922 125.83364 -41.35236 1.47753 52.33777 -1.34165 1.78832 -7.74483 -7.34015 -0.83079 169.91802 -84.1186 -90.0391 103.99073 67.53727 -79.72075 -22.97462 169.8818 80.18861 90.01164 92.38994 -63.3685 -79.69465 22.97084 63.14228 -10.97466 -1.12207 -17.20494 -11.21255 -2.53404 -2.15141 49.92887 -0.20685 13.20221 -31.71389 -6.54177 3.64239 2.53086
0.37681 -0.00943 0.6194 125.78923 -41.21639 1.39431 52.52119 -1.22007 2.82037 -8.01436 -6.93689 -0.83079 169.18455 -81.43388 -89.391 99.01664 66.89019 -79.22717 -22.90077 169.88212 80.39661 90.01164 86.9211 -63.90023 -79.69697 22.97178 62.93733 -10.9681 -1.05281 -17.13996 -11.25741 -2.59484 -2.18607 49.749 -0.12468 13.47525 -31.68576 -6.5087 3.61241 2.5123
0.37571 -0.00925 0.61953 125.66963 -41.05776 1.26467 52.69508 -1.06734 3.89199 -8.27686 -6.49795 -0.83079 171.66522 -78.44357 -91.61567 94.4893 66.47925 -80.90868 -23.15542 169.88204 80.13719 90.01164 82.2464 -64.21548 -79.71437 22.97875 62.64979 -10.91978 -0.93278 -17.01822 -11.22262 -2.64676 -2.21071 49.54357 0.00778 13.77826 -31.66597 -6.47662 3.58823 2.49626
0.37466 -0.00904 0.61976 125.68642 -40.94284 1.22862 52.88599 -0.97455 4.89545 -8.53466 -6.13087 -0.83079 167.54516 -76.11136 -87.88526 88.72037 65.80288 -78.1029 -22.72991 169.88109 80.81159 90.01164 75.80134 -65.00462 -79.65809 22.95662 62.53061 -10.94371 -0.85731 -17.01356 -11.35395 -2.725 -2.26006 49.38489 0.04005 14.0314 -31.62898 -6.44219 3.55308 2.47522
0.37379 -0.00875 0.62031 126.11005 -40.96097 1.46704 53.13594 -1.057 5.69831 -8.81331 -5.97583 -0.83079 143.62177 -75.61749 -66.81181 79.67636 63.97454 -62.01663 -20.32147 169.884 84.31472 90.01164 64.14996 -66.95436 -79.74883 22.9927 62.90598 -11.19342 -0.96104 -17.35438 -11.96489 -2.86767 -2.37446 49.36956 -0.21653 14.149 -31.54096 -6.39989 3.48283 2.43807
0.37297 -0.00843 0.62097 126.67253 -41.02189 1.79745 53.40119 -1.19959 6.4283 -9.0866 -5.89165 -0.83079 113.37203 -75.77559 -39.9728 69.47134 61.88749 -41.60249 -17.2518 169.8795 88.7191 90.01163 50.83988 -69.39575 -79.70649 22.97707 63.4459 -11.5157 -1.11914 -17.80866 -12.73816 -3.03593 -2.51309 49.40087 -0.57289 14.21165 -31.43631 -6.35565 3.40209 2.39621
0.37212 -0.00814 0.62157 127.16547 -41.05685 2.07626 53.65195 -1.31138 7.1874 -9.35109 -5.76723 -0.83079 87.13524 -75.60592 -16.38931 59.92117 60.07046 -23.80181 -14.56709 169.88117 92.55763 90.01162 38.62408 -71.71724 -79.48973 22.89099 63.89158 -11.7964 -1.2564 -18.19555 -13.4215 -3.19312 -2.64035 49.40563 -0.87813 14.28722 -31.34168 -6.31361 3.32891 2.358
0.37131 -0.00781 0.62217 127.68222 -41.11839 2.39555 53.93363 -1.43702 7.96597 -9.65972 -5.67544 -0.83079 56.12819 -75.5706 10.00656 49.77225 57.66177 -3.26722 -11.5332 169.8931 97.04801 90.01162 24.9461 -73.64563 -80.24102 23.18865 64.41853 -12.11066 -1.369 -18.64902 -14.17349 -3.34934 -2.7699 49.43182 -1.20736 14.41308 -31.23665 -6.26605 3.2444 2.31363
0.37043 -0.00755 0.62282 128.18391 -41.13551 2.65323 54.1555 -1.54848 8.68576 -9.8771 -5.53387 -0.83079 33.49918 -75.41139 31.76259 40.62846 56.38394 12.60486 -9.05838 169.85421 100.40231 90.0116 13.92683 -76.45533 -78.97377 22.69079 64.81626 -12.37395 -1.54848 -18.99122 -14.82085 -3.51282 -2.89993 49.42514 -1.51033 14.42379 -31.14931 -6.22941 3.18053 2.28071
0.36938 -0.00748 0.62359 128.60696 -41.01419 2.71171 54.20048 -1.60504 9.25944 -9.83526 -5.22711 -0.83079 36.08293 -74.73159 40.5878 34.42331 58.54703 14.47579 -8.39779 169.91717 100.34232 90.01146 10.68817 -82.05014 -71.91411 19.87004 64.80877 -12.47071 -1.90556 -18.99406 -15.13992 -3.69367 -3.02771 49.31326 -1.71816 14.09946 -31.11504 -6.22445 3.17991 2.28292
0.36826 -0.00748 0.62441 129.0111 -40.84769 2.7062 54.18615 -1.6455 9.77599 -9.70377 -4.86991 -0.83079 47.21977 -73.90879 44.33374 29.30102 61.80975 11.51969 -8.30633 169.88684 99.11929 90.01129 10.18084 -88.43396 -62.8756 16.27556 64.66692 -12.51537 -2.32742 -18.88192 -15.34794 -3.88008 -3.15457 49.16732 -1.89585 13.66619 -31.09911 -6.23036 3.19975 2.2964
0.36717 -0.00745 0.62521 129.42634 -40.70549 2.73448 54.20432 -1.69414 10.31989 -9.61922 -4.54252 -0.83079 54.09505 -73.16203 49.51465 23.7675 64.39218 10.81187 -7.87871 169.73844 98.46568 90.01115 8.40439 -94.13771 -54.90645 13.12745 64.59214 -12.58953 -2.71775 -18.8251 -15.60658 -4.06149 -3.28026 49.03915 -2.08628 13.30291 -31.07466 -6.23059 3.20777 2.30315
0.3661 -0.00741 0.626 129.83569 -40.54909 2.74646 54.19996 -1.74136 10.8571 -9.50804 -4.18806 -0.83079 62.33019 -72.38686 58.45099 17.84483 67.7105 10.01039 -7.74025 170.25706 97.66906 90.01099 6.68444 -101.18595 -46.21037 9.58103 64.49842 -12.64193 -3.12171 -18.75883 -15.87043 -4.25442 -3.41363 48.90313 -2.28428 12.85263 -31.05037 -6.23382 3.22597 2.31648
0.36496 -0.00742 0.62681 130.25114 -40.41069 2.77552 54.22779 -1.78678 11.39352 -9.43139 -3.87767 -0.83079 69.84712 -71.63409 58.45091 13.01303 69.78289 8.21923 -7.16211 169.37711 96.88471 90.01083 5.52052 -105.65243 -38.56561 6.67677 64.40921 -12.72596 -3.50813 -18.68404 -16.09472 -4.42412 -3.5303 48.7745 -2.45797 12.55671 -31.03036 -6.23347 3.22807 2.31893
0.36364 -0.00757 0.62765 130.68624 -40.33529 2.87097 54.3627 -1.83228 11.95964 -9.46981 -3.69603 -0.83079 73.31593 -70.92618 33.53794 10.8698 67.95109 4.69589 -5.06987 164.55123 96.39411 90.01092 5.20607 -102.46143 -34.2644 5.77574 64.37224 -12.91312 -3.86415 -18.60833 -16.2378 -4.52992 -3.60222 48.67671 -2.57207 12.72825 -31.01728 -6.22009 3.17987 2.28782
